<svg xmlns="http://www.w3.org/2000/svg" width="113.946" height="109.952" viewBox="0 0 113.946 109.952">
  <g id="logo_w" data-name="logo w" transform="translate(0 -0.038)">
    <path id="Path_44" data-name="Path 44" d="M43.74,98.24" transform="translate(0.611 -41.9)" fill="#fff"/>
    <path id="Path_45" data-name="Path 45" d="M31.636,132.4H24.249a44.521,44.521,0,0,0-2.557-5.057,3.949,3.949,0,0,0-2.472-1.975v7.1H12.6v-22.2h8.68a12.217,12.217,0,0,1,7.1,1.676,6.393,6.393,0,0,1,2.472,5.583q0,4.986-3.836,6.549Q28.184,125.1,31.636,132.4Zm-8.524-17.047a5.356,5.356,0,0,0-2.23-.341H19.248v5.143h1.96a4.461,4.461,0,0,0,2.159-.384,2.841,2.841,0,0,0-.27-4.418Z" transform="translate(-12.486 -36.854)" fill="#fff"/>
    <path id="Path_46" data-name="Path 46" d="M34.428,115.573V118.6h9.163v5.356H34.428v3.054H45.253v5.342H27.78V110.26H45.253v5.313Z" transform="translate(-6.102 -36.845)" fill="#fff"/>
    <path id="Path_47" data-name="Path 47" d="M50.93,110.269a12.217,12.217,0,0,1,7.1,1.676,6.393,6.393,0,0,1,2.472,5.583q0,4.816-3.466,6.734a17.047,17.047,0,0,1-8.126,1.52v6.62H42.25V110.269ZM48.9,120.711a12.019,12.019,0,0,0,3.978-.4c.7-.327,1.051-1.193,1.051-2.586a2.458,2.458,0,0,0-1.179-2.415,5.441,5.441,0,0,0-2.245-.341H48.9Z" transform="translate(-0.015 -36.854)" fill="#fff"/>
    <path id="Path_48" data-name="Path 48" d="M67.359,127.577H62.5l-1.136,4.816H53.38l7.572-22.133h7.714l7.884,22.133H68.566Zm-2.5-10.129-1.108,4.787h2.287Z" transform="translate(4.666 -36.845)" fill="#fff"/>
    <path id="Path_49" data-name="Path 49" d="M77.548,132.393H70.9V110.26h6.648Z" transform="translate(12.035 -36.845)" fill="#fff"/>
    <path id="Path_50" data-name="Path 50" d="M97.351,132.4H89.964a42.889,42.889,0,0,0-2.443-5.057,4.02,4.02,0,0,0-2.472-1.975v7.1H78.4v-22.2h8.68a12.217,12.217,0,0,1,7.1,1.676,6.393,6.393,0,0,1,2.472,5.583q0,4.986-3.85,6.549Q93.984,125.1,97.351,132.4ZM88.9,115.355a5.384,5.384,0,0,0-2.245-.341H85.048v5.143h1.946a4.56,4.56,0,0,0,2.174-.384,2.259,2.259,0,0,0,.909-2.117,2.287,2.287,0,0,0-1.179-2.344Z" transform="translate(15.19 -36.854)" fill="#fff"/>
    <path id="Path_51" data-name="Path 51" d="M19.554,139.222h-.682v-5.682a2.045,2.045,0,0,1-1.023.284H14.326a1.208,1.208,0,0,0-.895.327.654.654,0,0,0-.2.241v4.83H12.55V128.383h.639v5.072a2,2,0,0,1,1.094-.3h3.452a1.42,1.42,0,0,0,.923-.3,1.334,1.334,0,0,0,.17-.256V128.34h.682Z" transform="translate(-12.507 -29.24)" fill="#fff"/>
    <path id="Path_52" data-name="Path 52" d="M23.788,139.209a3.637,3.637,0,0,1-1.747-.455,4.489,4.489,0,0,1-1.421-1.165,6.407,6.407,0,0,1,0-7.6,4.262,4.262,0,0,1,1.421-1.165,3.636,3.636,0,0,1,1.747-.455,3.594,3.594,0,0,1,1.733.455,4.162,4.162,0,0,1,1.421,1.165,6.35,6.35,0,0,1,0,7.6,4.262,4.262,0,0,1-1.421,1.165,3.594,3.594,0,0,1-1.733.455Zm1.847-9.5a3.04,3.04,0,0,0-1.847-.639,2.969,2.969,0,0,0-1.847.639,4.262,4.262,0,0,0-1.35,1.719,5.682,5.682,0,0,0,0,4.731,4.262,4.262,0,0,0,1.35,1.719,2.969,2.969,0,0,0,1.847.639,3.04,3.04,0,0,0,1.847-.639,4.262,4.262,0,0,0,1.35-1.719,5.682,5.682,0,0,0,0-4.731,4.262,4.262,0,0,0-1.35-1.79Z" transform="translate(-9.638 -29.228)" fill="#fff"/>
    <path id="Path_53" data-name="Path 53" d="M35.3,128.32h.71v10.91H35.3v-8.893l-3.2,8.893h-.725L28.2,130.266v8.964H27.52V128.391H28.2l3.58,9.816Z" transform="translate(-6.211 -29.249)" fill="#fff"/>
    <path id="Path_54" data-name="Path 54" d="M41.922,139.209H35.43V128.37h6.492v.7h-5.81v4.177a1.833,1.833,0,0,1,.568-.1h5.242v.7H36.68a.582.582,0,0,0-.455.142.4.4,0,0,0-.114.284v4.262h5.81Z" transform="translate(-2.884 -29.228)" fill="#fff"/>
    <path id="Path_55" data-name="Path 55" d="M46.511,139.209a6.137,6.137,0,0,1-2.387-.4,3.14,3.14,0,0,1-1.307-1.051l-.227-.256.554-.412.213.284a4.009,4.009,0,0,0,.426.426,2.33,2.33,0,0,0,.554.369,3.537,3.537,0,0,0,.895.27,8.369,8.369,0,0,0,1.279.085,3.566,3.566,0,0,0,2.245-.639,2.1,2.1,0,0,0,.81-1.733,1.506,1.506,0,0,0-.142-.682,1.69,1.69,0,0,0-.369-.511,2.359,2.359,0,0,0-.668-.4,7.636,7.636,0,0,0-.838-.313l-1.065-.284a9.86,9.86,0,0,1-2.429-.824,2.728,2.728,0,0,1-.895-.8,2.344,2.344,0,0,1-.341-1.264,2.387,2.387,0,0,1,.867-1.932,4.446,4.446,0,0,1,2.841-.767,3.679,3.679,0,0,1,1.648.369,3.793,3.793,0,0,1,1.307,1.065l.227.27-.54.412-.242-.27a2.841,2.841,0,0,0-1.065-.881,3.154,3.154,0,0,0-1.335-.3,3.708,3.708,0,0,0-2.372.611,1.733,1.733,0,0,0-.611,1.421,1.69,1.69,0,0,0,.142.725,1.421,1.421,0,0,0,.369.511,2.841,2.841,0,0,0,.682.412,5.072,5.072,0,0,0,.852.3l1.065.3a9.247,9.247,0,0,1,2.415.81,2.685,2.685,0,0,1,.881.8,2.159,2.159,0,0,1,.341,1.222,2.841,2.841,0,0,1-.256,1.208,2.373,2.373,0,0,1-.725.952,4.049,4.049,0,0,1-2.8.895Z" transform="translate(0.128 -29.227)" fill="#fff"/>
    <path id="Path_56" data-name="Path 56" d="M55.68,139.205H49.23V128.38h6.45v.682H49.912v4.177a1.833,1.833,0,0,1,.568-.1h5.2v.7h-5.2a.582.582,0,0,0-.455.142.4.4,0,0,0-.114.284v4.262H55.68Z" transform="translate(2.921 -29.223)" fill="#fff"/>
    <path id="Path_57" data-name="Path 57" d="M63.014,139.206h-.767l-2.117-4.787a1.421,1.421,0,0,0-.2-.284,1.309,1.309,0,0,0-.2-.156l-.156-.085H56.82a.639.639,0,0,0-.469.156.511.511,0,0,0-.1.256v4.9H55.57V128.381h4.461a2.642,2.642,0,0,1,1.421.355,2.67,2.67,0,0,1,.994.994,2.841,2.841,0,0,1,.369,1.421,2.614,2.614,0,0,1-.639,1.733,2.657,2.657,0,0,1-1.577.923,2.529,2.529,0,0,1,.242.384Zm-6.762-5.967a1.916,1.916,0,0,1,.511-.1h3.267a1.9,1.9,0,0,0,1.421-.6,2.017,2.017,0,0,0,0-2.841,1.875,1.875,0,0,0-1.421-.611H56.252Z" transform="translate(5.587 -29.224)" fill="#fff"/>
    <path id="Path_58" data-name="Path 58" d="M66.389,139.205,62.61,128.38h.739l3.409,9.774,3.4-9.774h.739l-3.765,10.825Z" transform="translate(8.548 -29.223)" fill="#fff"/>
    <path id="Path_59" data-name="Path 59" d="M70.24,139.205V128.38h.7v10.825Z" transform="translate(11.757 -29.223)" fill="#fff"/>
    <path id="Path_60" data-name="Path 60" d="M76.923,139.205a3.637,3.637,0,0,1-1.733-.455,4.262,4.262,0,0,1-1.421-1.165,6.407,6.407,0,0,1,0-7.6,4.063,4.063,0,0,1,1.421-1.165,3.608,3.608,0,0,1,1.733-.44,3.736,3.736,0,0,1,2.017.582,5.029,5.029,0,0,1,1.421,1.548l.185.3-.6.369-.185-.3a4.162,4.162,0,0,0-1.293-1.335,2.841,2.841,0,0,0-1.619-.483,3.012,3.012,0,0,0-1.847.639,4.262,4.262,0,0,0-1.421,1.719,5.881,5.881,0,0,0,0,4.731,4.347,4.347,0,0,0,1.421,1.719,3.012,3.012,0,0,0,3.466.17,4.262,4.262,0,0,0,1.293-1.421l.185-.284.6.369-.185.3a5.029,5.029,0,0,1-1.421,1.548A3.75,3.75,0,0,1,76.923,139.205Z" transform="translate(12.717 -29.223)" fill="#fff"/>
    <path id="Path_61" data-name="Path 61" d="M86.478,139.205H80V128.38h6.45v.682H80.767v4.177a1.748,1.748,0,0,1,.554-.1h5.2v.7H81.279a.6.6,0,0,0-.455.142.384.384,0,0,0-.1.284v4.262h5.682Z" transform="translate(15.863 -29.223)" fill="#fff"/>
    <path id="Path_62" data-name="Path 62" d="M90.267,139.209a6.236,6.236,0,0,1-2.387-.4,3.225,3.225,0,0,1-1.307-1.051l-.213-.256.554-.412.213.284a3.99,3.99,0,0,0,.412.426,3.109,3.109,0,0,0,.554.369,3.949,3.949,0,0,0,.895.27,8.515,8.515,0,0,0,1.279.085,3.552,3.552,0,0,0,2.245-.639,2.1,2.1,0,0,0,.824-1.733,1.719,1.719,0,0,0-.142-.682,1.961,1.961,0,0,0-.369-.511,2.585,2.585,0,0,0-.668-.4,7.631,7.631,0,0,0-.838-.313l-1.08-.284a10.329,10.329,0,0,1-2.429-.824,2.383,2.383,0,0,1-.355-3.992,4.432,4.432,0,0,1,2.841-.767,3.636,3.636,0,0,1,1.648.369,3.722,3.722,0,0,1,1.321,1.065l.213.27-.54.412-.227-.27a2.841,2.841,0,0,0-1.065-.881,3.168,3.168,0,0,0-1.421-.3,3.665,3.665,0,0,0-2.358.611,1.747,1.747,0,0,0-.625,1.421,1.932,1.932,0,0,0,.142.724,1.733,1.733,0,0,0,.384.511,3.041,3.041,0,0,0,.668.412,6.136,6.136,0,0,0,.852.3l1.08.3a9.446,9.446,0,0,1,2.415.81,2.628,2.628,0,0,1,.867.8A2.06,2.06,0,0,1,94,136.154a2.841,2.841,0,0,1-.256,1.208,2.656,2.656,0,0,1-.725.952A4.091,4.091,0,0,1,90.267,139.209Z" transform="translate(18.538 -29.227)" fill="#fff"/>
    <path id="Path_63" data-name="Path 63" d="M35.08,91.3h7.927L38.93,74Zm7.1-.7H35.932L38.944,77.1Z" transform="translate(-3.031 -52.096)" fill="#fff"/>
    <path id="Path_64" data-name="Path 64" d="M123.157,100.149c-.838-1.136-1.861-2.131-2.841-3.282-3.935,3.921-7.671,7.757-11.436,11.45l-5.5-5.526c1.563-2.458,1.563-4.489,0-6.137a4.262,4.262,0,0,0-2.6-1.293,4.574,4.574,0,0,0-3.765,1.307L95.6,95.149q-7.558,8.055-15.215,16.195a2.841,2.841,0,0,1-.938.994c-5.341,5.682-10.8,11.265-16.167,16.948H54.4L53.732,118.9l3.409-3.381-.213-.767h-.81l-1.264-.185c-.867-.071-1.747-.128-2.614-.17a98.983,98.983,0,0,0-10.669,0,.824.824,0,0,0-.455.142,1.222,1.222,0,0,0-.455.767v.185c-.156.5-.3.98-.426,1.421-.242.909-.469,1.875-.739,3.083l-.469,2.245a67.423,67.423,0,0,1-1.776,7.2c-4.631.3-9.532.241-14.206.185-2.841,0-5.682-.071-8.524,0a9.315,9.315,0,0,0-.966,0c3.608-11.365,7.373-22.73,11.01-33.668,3.892-11.72,7.9-23.824,11.692-35.856a1.747,1.747,0,0,1,1.8-.867H63.094V109.98L75.282,97.663l.2-.227.455-.128v-.227h0L86.818,86.157,85.4,85.048c.128-.2.142-.256.185-.3a4.461,4.461,0,0,0-.71-6.535,13.794,13.794,0,0,0-5.682-2.756,19.576,19.576,0,0,0-8.751.284,2.088,2.088,0,0,1-.412,0,.426.426,0,0,1-.256,0c-.426-.384-.824-.781-1.279-1.25h0c.725-.369.895-.511.8-1.165.881-.483,1.719-.938,2.586-1.421a26.722,26.722,0,0,1,17.388-2.486A16,16,0,0,1,97.87,74.01c3.4,3.523,6.89,6.961,10.342,10.427.17.17.341.369.511.554l-.213.284-.185.242a4.262,4.262,0,0,0-.3,4.716,3.708,3.708,0,0,0,4.063,2.06,7.1,7.1,0,0,0,2.117-.682,14.618,14.618,0,0,0,4.375-3.409c4.56-4.887,5.91-10.569,3.58-16.863a17.7,17.7,0,0,0-8.879-9.546A29.293,29.293,0,0,0,99.6,58.71H65.054c-4.5,0-9.092,0-13.524-.071s-9.035,0-13.538,0a2.472,2.472,0,0,0-2.443,1.307C31.741,72.021,27.735,84.1,23.842,95.831c-3.694,11.138-7.5,22.644-11.166,34.194l-.156.469H28.63c2.941,0,5.881,0,8.737-.241h.227v-.227a67.223,67.223,0,0,0,1.861-7.5l.739-2.273c.27-1.179.5-2.145.739-3.04.128-.483.256-.98.412-1.421v-.2c.1-.384.128-.4.27-.4.895,0,1.8,0,2.713-.085l7.955.128c.867,0,1.719.1,2.586.17h.2c.6,0,.867.1.952.256l-3.125,3,.71,10.7v.44h46.88a34.55,34.55,0,0,0,9.49-1.321,24.235,24.235,0,0,0,12.061-7.188A16.465,16.465,0,0,0,123.157,100.149Zm-32.674,9.106h4.4v4.39H90.54Zm4.375,10.058h-4.3v-4.4h4.361Zm1.208-9.845a.5.5,0,0,1,.313-.242h4.077v4.446H96.123c0-1.435-.014-2.813,0-4.2Zm4.39,9.944H96.35c-.1,0-.284-.213-.284-.341v-4.091h4.4Z" transform="translate(-12.52 -58.57)" fill="#fff"/>
  </g>
</svg>
